<svg width="251" height="300" viewBox="0 0 251 300" fill="none" xmlns="http://www.w3.org/2000/svg">
<g filter="url(#filter0_d_11_285)">
<path d="M95.3643 270.329C96.5709 266.455 96.6835 262.466 95.7083 258.366C94.7316 254.263 92.7286 250.348 89.705 246.618C86.6795 242.889 82.9076 239.487 78.3889 236.416C73.8712 233.341 68.8217 230.942 63.2396 229.217C57.6575 227.492 52.1311 226.622 46.6598 226.609C41.189 226.595 36.2205 227.294 31.7547 228.706C27.288 230.122 23.4873 232.242 20.3507 235.075C17.2145 237.905 15.0437 241.256 13.8371 245.13C12.6303 249.005 12.5152 252.994 13.4926 257.095C14.4693 261.198 16.3974 265.09 19.2759 268.774C22.1542 272.459 25.8526 275.837 30.3713 278.909C34.8891 281.983 39.9397 284.381 45.5218 286.106C51.1039 287.832 56.6299 288.703 62.1004 288.716C67.5726 288.731 72.6153 288.054 77.2261 286.685C81.8394 285.317 85.7136 283.219 88.8502 280.386C91.9856 277.555 94.1577 274.203 95.3643 270.329ZM70.2293 217.63L66.7037 216.541C57.5563 212.819 50.7651 207.479 46.3299 200.52C41.8943 193.562 41.1339 186.955 44.0474 180.702C49.3027 170.034 56.7243 160.423 66.3114 151.875C75.8986 143.325 86.9567 136.517 99.4859 131.448C103.607 129.592 107.941 128.082 112.491 126.917C117.043 125.754 121.574 124.64 126.092 123.577C137.565 120.864 146.574 118.06 153.11 115.163C159.646 112.266 163.934 107.555 165.966 101.03C167.744 95.3211 167.515 90.1092 165.28 85.3947C163.046 80.6808 159.837 76.5034 155.655 72.8639C151.474 69.2244 146.882 66.1287 141.88 63.5768C136.878 61.0248 132.32 59.1131 128.207 57.8418L127.325 57.5694C119.099 55.0268 112.104 53.7029 106.339 53.5976C100.575 53.4924 95.4274 54.2486 90.8976 55.8662C86.3679 57.4838 82.2511 59.8438 78.5472 62.9461C74.8434 66.0484 70.9709 69.4339 66.9296 73.1025C61.4354 78.3338 55.7942 81.452 50.0059 82.4571C44.2175 83.4622 38.7626 83.3968 33.6411 82.2609C27.805 81.3512 22.1712 79.2746 16.7399 76.0311C11.372 72.5838 7.40163 68.786 4.82866 64.6377C2.42249 60.9881 0.988943 56.8009 0.528025 52.076C0.0671052 47.3512 2.25819 42.3842 7.10128 37.1752C10.0706 33.8458 14.886 29.2429 21.5473 23.3664C28.2087 17.49 37.0993 12.4702 48.2192 8.30703C59.3391 4.14391 72.7439 1.69291 88.4336 0.954031C104.123 0.215154 122.513 3.2167 143.602 9.95846C157.641 14.5211 170.967 20.5958 183.58 28.1828C196.194 35.7697 206.92 44.5055 215.758 54.3903C224.599 64.2757 230.918 75.0024 234.724 86.5732C238.529 98.1432 238.523 110.045 234.713 122.279C231.919 131.251 227.682 138.659 221.995 144.501C216.31 150.344 209.893 155.178 202.743 159.004C195.593 162.829 188.225 165.805 180.639 167.931C173.052 170.057 166.107 171.934 159.802 173.562C156.293 174.489 152.978 175.309 149.855 176.02C146.734 176.733 144.219 177.577 142.306 178.549C135.621 181.401 129.505 185.266 123.959 190.147C118.411 195.027 114.184 200.594 111.27 206.846C108.42 212.895 103.071 216.885 95.2234 218.819C87.3737 220.75 79.0431 220.355 70.2293 217.63Z" fill="#7774E1"/>
<path d="M31.7547 228.706C27.288 230.122 23.4873 232.242 20.3507 235.075C17.2145 237.905 15.0437 241.256 13.8371 245.13C12.6303 249.005 12.5152 252.994 13.4926 257.095C14.4693 261.198 16.3974 265.09 19.2759 268.774C22.1542 272.459 25.8526 275.837 30.3713 278.909C34.8891 281.983 39.9397 284.381 45.5218 286.106C51.1039 287.832 56.6299 288.703 62.1004 288.716C67.5726 288.731 72.6153 288.054 77.2261 286.685M31.7547 228.706L32.506 231.088M31.7547 228.706C36.2205 227.294 41.189 226.595 46.6598 226.609C52.1311 226.622 57.6575 227.492 63.2396 229.217C68.8217 230.942 73.8712 233.341 78.3889 236.416C82.9076 239.487 86.6795 242.889 89.705 246.618M31.7547 228.706L32.5073 231.088C32.5068 231.088 32.5064 231.088 32.506 231.088M32.506 231.088C28.3436 232.407 24.8682 234.361 22.0265 236.927L22.0261 236.927C19.2092 239.47 17.2932 242.441 16.2256 245.869C15.1577 249.298 15.0485 252.83 15.9262 256.512L15.9264 256.513C16.8114 260.23 18.5667 263.801 21.2491 267.235L21.2492 267.235C23.9442 270.685 27.4416 273.893 31.7813 276.842L31.7824 276.843C36.0807 279.768 40.9035 282.062 46.2652 283.719C51.6269 285.377 56.906 286.205 62.1107 286.217L62.1117 286.217C67.3734 286.231 72.1702 285.581 76.5175 284.291L77.2261 286.685M32.506 231.088C36.6878 229.766 41.3943 229.094 46.6488 229.107L46.6494 229.107C51.8554 229.12 57.135 229.947 62.4962 231.604C67.8574 233.261 72.6791 235.556 76.9778 238.481L76.979 238.482C81.3233 241.435 84.9073 244.676 87.7603 248.193M77.2261 286.685L76.5177 284.29C80.8227 283.013 84.3524 281.082 87.1745 278.534L88.8502 280.386M77.2261 286.685C81.8394 285.317 85.7136 283.219 88.8502 280.386M88.8502 280.386L87.1745 278.534C89.991 275.991 91.9082 273.019 92.9758 269.591C94.0432 266.163 94.1506 262.631 93.2745 258.948M88.8502 280.386C91.9856 277.555 94.1577 274.203 95.3643 270.329C96.5709 266.455 96.6835 262.466 95.7083 258.366M93.2745 258.948C92.3959 255.257 90.582 251.674 87.7603 248.193M93.2745 258.948C93.2745 258.948 93.2745 258.948 93.2744 258.948L95.7083 258.366M93.2745 258.948L95.7083 258.366M95.7083 258.366C94.7316 254.263 92.7286 250.348 89.705 246.618M89.705 246.618L87.7603 248.193M89.705 246.618L87.7596 248.192C87.7598 248.192 87.7601 248.193 87.7603 248.193M48.4408 199.176L48.4406 199.175C44.3644 192.781 43.839 187.087 46.304 181.777C51.4051 171.43 58.6174 162.081 67.9755 153.737L66.3114 151.875L67.9755 153.737C77.3367 145.389 88.1453 138.73 100.422 133.763L100.467 133.745L100.511 133.725C104.495 131.931 108.692 130.468 113.107 129.338C117.644 128.178 122.16 127.068 126.661 126.009L126.664 126.008C138.204 123.28 147.382 120.434 154.121 117.446C161.283 114.272 166.097 109.018 168.354 101.769C170.29 95.554 170.084 89.6851 167.541 84.3227C165.152 79.2788 161.725 74.8296 157.301 70.979C152.964 67.2042 148.202 63.9947 143.021 61.3514L141.88 63.5768L143.021 61.3514C137.927 58.7527 133.234 56.779 128.95 55.4549L128.069 55.1824C119.717 52.6011 112.474 51.2107 106.389 51.0996C100.381 50.9899 94.9245 51.7763 90.0591 53.5137C85.2485 55.2317 80.8722 57.7408 76.9418 61.0329C73.2094 64.1591 69.3117 67.5667 65.2489 71.2549L65.2268 71.275L65.2052 71.2956C59.9664 76.2837 54.7572 79.0969 49.5816 79.9956C44.077 80.9514 38.9543 80.879 34.1875 79.8218L34.1098 79.8045L34.0311 79.7923C28.5466 78.9374 23.2266 76.986 18.0614 73.907C12.9321 70.6075 9.27774 67.0627 6.95584 63.3192L6.93765 63.2899L6.91865 63.2611C4.75442 59.9785 3.44276 56.186 3.01776 51.8294C2.65478 48.1084 4.33375 43.8203 8.93294 38.8735L8.9506 38.8545L8.96787 38.8352C11.8338 35.6218 16.557 31.0993 23.2015 25.2378C29.5708 19.6189 38.1693 14.7362 49.0935 10.6464C59.905 6.59868 73.0386 4.18007 88.547 3.44973C103.842 2.72943 121.92 5.65226 142.83 12.3363C156.687 16.8403 169.838 22.8357 182.287 30.3237C194.71 37.7958 205.236 46.3768 213.891 56.0563L213.891 56.0565C222.523 65.7085 228.657 76.1397 232.347 87.3565C235.981 98.4069 235.989 109.776 232.325 121.541C229.629 130.195 225.575 137.242 220.203 142.761L220.202 142.762C214.696 148.421 208.486 153.099 201.565 156.802C194.571 160.544 187.372 163.45 179.967 165.525C172.394 167.647 165.465 169.52 159.18 171.143L159.167 171.147C155.681 172.067 152.394 172.88 149.303 173.584L149.301 173.584C146.105 174.315 143.401 175.203 141.252 176.283C134.346 179.239 128.03 183.237 122.307 188.274C116.519 193.365 112.074 199.205 109.005 205.79C106.543 211.01 101.909 214.599 94.6283 216.393C87.2799 218.201 79.4151 217.853 70.9727 215.243L67.5517 214.186C58.839 210.623 52.5318 205.595 48.4408 199.176Z" stroke="#3E3D78" stroke-width="5"/>
</g>
<defs>
<filter id="filter0_d_11_285" x="0.467773" y="0.844559" width="250.106" height="298.871" filterUnits="userSpaceOnUse" color-interpolation-filters="sRGB">
<feFlood flood-opacity="0" result="BackgroundImageFix"/>
<feColorMatrix in="SourceAlpha" type="matrix" values="0 0 0 0 0 0 0 0 0 0 0 0 0 0 0 0 0 0 127 0" result="hardAlpha"/>
<feOffset dx="12" dy="10"/>
<feGaussianBlur stdDeviation="0.5"/>
<feComposite in2="hardAlpha" operator="out"/>
<feColorMatrix type="matrix" values="0 0 0 0 0.24397 0 0 0 0 0.23934 0 0 0 0 0.470833 0 0 0 1 0"/>
<feBlend mode="normal" in2="BackgroundImageFix" result="effect1_dropShadow_11_285"/>
<feBlend mode="normal" in="SourceGraphic" in2="effect1_dropShadow_11_285" result="shape"/>
</filter>
</defs>
</svg>
